<svg xmlns="http://www.w3.org/2000/svg" viewBox="0 0 512 512">
  <!-- Background Elements -->
  <circle cx="256" cy="256" r="248" fill="#064E3B" opacity="0.05"/>
  
  <!-- Stylized Container -->
  <path d="M128 180 
           C128 140, 140 128, 180 128 
           H332
           C372 128, 384 140, 384 180
           V332
           C384 372, 372 384, 332 384
           H180
           C140 384, 128 372, 128 332Z" 
        fill="none" 
        stroke="#10B981" 
        stroke-width="16"/>
  
  <!-- Main UW3G Text -->
  <g transform="translate(256 256)">
    <!-- U -->
    <path d="M-120 -60 
             C-120 0, -120 40, -80 40
             C-40 40, -40 0, -40 -60" 
          fill="none" 
          stroke="#10B981" 
          stroke-width="24" 
          stroke-linecap="round"/>
    
    <!-- W -->
    <path d="M-20 -60 
             L0 40 
             L20 -20
             L40 40
             L60 -60" 
          fill="none" 
          stroke="#10B981" 
          stroke-width="24" 
          stroke-linecap="round"/>
    
    <!-- 3 -->
    <path d="M80 -60
             C120 -60, 120 -20, 80 -20
             C120 -20, 120 20, 80 40" 
          fill="none" 
          stroke="#10B981" 
          stroke-width="24" 
          stroke-linecap="round"/>
    
    <!-- G -->
    <path d="M100 0 L120 0 L120 40
             C120 40, 80 40, 80 0
             C80 -40, 120 -40, 120 0" 
          fill="none" 
          stroke="#10B981" 
          stroke-width="24" 
          stroke-linecap="round"/>
  </g>
  
  <!-- Web3 Decorative Elements -->
  <g stroke="#10B981" stroke-width="4" opacity="0.3">
    <line x1="128" y1="256" x2="180" y2="256"/>
    <line x1="332" y1="256" x2="384" y2="256"/>
    <line x1="256" y1="128" x2="256" y2="180"/>
    <line x1="256" y1="332" x2="256" y2="384"/>
  </g>
  
  <!-- Corner Accents -->
  <g fill="#10B981" opacity="0.5">
    <circle cx="180" cy="180" r="8"/>
    <circle cx="332" cy="180" r="8"/>
    <circle cx="180" cy="332" r="8"/>
    <circle cx="332" cy="332" r="8"/>
  </g>
</svg>