<svg xmlns="http://www.w3.org/2000/svg" viewBox="0 0 512 512">
  <!-- Background Circle -->
  <circle cx="256" cy="256" r="248" fill="#10B981" opacity="0.1"/>
  
  <!-- Decorative Tech Circuit Lines -->
  <path d="M128 256 L384 256" stroke="#10B981" stroke-width="12" fill="none" opacity="0.3"/>
  <path d="M256 128 L256 384" stroke="#10B981" stroke-width="12" fill="none" opacity="0.3"/>
  
  <!-- Main Letters - Stylized UW3G -->
  <path d="M160 140 Q160 240 160 320 Q160 360 200 360 L240 360 Q280 360 280 320 L280 140" 
        fill="none" stroke="#10B981" stroke-width="24" stroke-linecap="round"/>
  
  <!-- W component -->
  <path d="M300 140 L320 320 L340 220 L360 320 L380 140" 
        fill="none" stroke="#10B981" stroke-width="24" stroke-linecap="round"/>
  
  <!-- 3 component -->
  <path d="M160 180 Q220 180 220 220 Q160 220 160 260 Q220 260 220 300" 
        fill="none" stroke="#10B981" stroke-width="16" stroke-linecap="round" 
        transform="translate(200, 40)"/>
  
  <!-- G component -->
  <path d="M340 220 Q340 280 280 280 L260 280 L260 240 L300 240 M280 180 Q340 180 340 220" 
        fill="none" stroke="#10B981" stroke-width="16" stroke-linecap="round"/>
  
  <!-- Outer Ring -->
  <circle cx="256" cy="256" r="248" 
          stroke="#10B981" stroke-width="16" fill="none"/>
</svg>